<mxfile host="Electron" modified="2023-05-11T14:08:50.335Z" agent="Mozilla/5.0 (X11; Linux x86_64) AppleWebKit/537.36 (KHTML, like Gecko) draw.io/21.2.1 Chrome/112.0.5615.87 Electron/24.1.2 Safari/537.36" etag="dSlsw2R1xXRCAioR7TyV" version="21.2.1" type="device">
  <diagram name="Page-1" id="Ib3WMkIlsCMuUOGe0F2E">
    <mxGraphModel dx="880" dy="547" grid="1" gridSize="10" guides="1" tooltips="1" connect="1" arrows="1" fold="1" page="1" pageScale="1" pageWidth="827" pageHeight="1169" math="0" shadow="0">
      <root>
        <mxCell id="0" />
        <mxCell id="1" parent="0" />
        <mxCell id="VXcvFGD30qsPXuZ6tYkM-15" style="edgeStyle=orthogonalEdgeStyle;orthogonalLoop=1;jettySize=auto;html=1;exitX=0.5;exitY=1;exitDx=0;exitDy=0;entryX=0.5;entryY=0;entryDx=0;entryDy=0;curved=1;endArrow=none;endFill=0;" edge="1" parent="1" source="VXcvFGD30qsPXuZ6tYkM-1" target="VXcvFGD30qsPXuZ6tYkM-3">
          <mxGeometry relative="1" as="geometry" />
        </mxCell>
        <mxCell id="VXcvFGD30qsPXuZ6tYkM-1" value="Data Engineer" style="text;html=1;strokeColor=none;fillColor=none;align=center;verticalAlign=middle;whiteSpace=wrap;rounded=0;fontStyle=1;fontFamily=Courier New;fontSize=20;" vertex="1" parent="1">
          <mxGeometry x="331" y="210" width="166" height="30" as="geometry" />
        </mxCell>
        <mxCell id="VXcvFGD30qsPXuZ6tYkM-2" value="" style="curved=1;endArrow=none;html=1;rounded=0;entryX=0.5;entryY=0;entryDx=0;entryDy=0;dashed=1;endFill=0;" edge="1" parent="1" target="VXcvFGD30qsPXuZ6tYkM-1">
          <mxGeometry width="50" height="50" relative="1" as="geometry">
            <mxPoint x="450" y="130" as="sourcePoint" />
            <mxPoint x="400" y="180" as="targetPoint" />
            <Array as="points">
              <mxPoint x="400" y="130" />
              <mxPoint x="450" y="180" />
            </Array>
          </mxGeometry>
        </mxCell>
        <mxCell id="VXcvFGD30qsPXuZ6tYkM-3" value="Summary of Data Formats" style="rounded=1;whiteSpace=wrap;html=1;fillColor=#4b84b9;fontColor=#ffffff;fontFamily=Courier New;fontSize=13;fontStyle=0" vertex="1" parent="1">
          <mxGeometry x="104" y="340" width="227" height="50" as="geometry" />
        </mxCell>
        <mxCell id="VXcvFGD30qsPXuZ6tYkM-4" value="Data Discovery" style="rounded=1;whiteSpace=wrap;html=1;fillColor=#4b84b9;fontColor=#ffffff;fontFamily=Courier New;fontSize=13;fontStyle=0" vertex="1" parent="1">
          <mxGeometry x="104" y="400" width="227" height="50" as="geometry" />
        </mxCell>
        <mxCell id="VXcvFGD30qsPXuZ6tYkM-5" value="Data Source &amp;amp; Acquisition" style="rounded=1;whiteSpace=wrap;html=1;fillColor=#4b84b9;fontColor=#ffffff;fontFamily=Courier New;fontSize=13;fontStyle=0" vertex="1" parent="1">
          <mxGeometry x="104" y="460" width="227" height="50" as="geometry" />
        </mxCell>
        <mxCell id="VXcvFGD30qsPXuZ6tYkM-6" value="Data Integration" style="rounded=1;whiteSpace=wrap;html=1;fillColor=#4b84b9;fontColor=#ffffff;fontFamily=Courier New;fontSize=13;fontStyle=0" vertex="1" parent="1">
          <mxGeometry x="104" y="520" width="227" height="50" as="geometry" />
        </mxCell>
        <mxCell id="VXcvFGD30qsPXuZ6tYkM-7" value="Data Fusion" style="rounded=1;whiteSpace=wrap;html=1;fillColor=#4b84b9;fontColor=#ffffff;fontFamily=Courier New;fontSize=13;fontStyle=0" vertex="1" parent="1">
          <mxGeometry x="104" y="578.5" width="227" height="50" as="geometry" />
        </mxCell>
        <mxCell id="VXcvFGD30qsPXuZ6tYkM-8" value="Transformation &amp;amp; Enrichment" style="rounded=1;whiteSpace=wrap;html=1;fillColor=#4b84b9;fontColor=#ffffff;fontFamily=Courier New;fontSize=13;fontStyle=0" vertex="1" parent="1">
          <mxGeometry x="104" y="635" width="227" height="50" as="geometry" />
        </mxCell>
        <mxCell id="VXcvFGD30qsPXuZ6tYkM-9" value="Data Survey" style="rounded=1;whiteSpace=wrap;html=1;fillColor=#4b84b9;fontColor=#ffffff;fontFamily=Courier New;fontSize=13;fontStyle=0" vertex="1" parent="1">
          <mxGeometry x="104" y="690" width="227" height="50" as="geometry" />
        </mxCell>
        <mxCell id="VXcvFGD30qsPXuZ6tYkM-10" value="OpenRefine" style="rounded=1;whiteSpace=wrap;html=1;fillColor=#4b84b9;fontColor=#ffffff;fontFamily=Courier New;fontSize=13;fontStyle=0" vertex="1" parent="1">
          <mxGeometry x="104" y="750" width="227" height="50" as="geometry" />
        </mxCell>
        <mxCell id="VXcvFGD30qsPXuZ6tYkM-11" value="How much data" style="rounded=1;whiteSpace=wrap;html=1;fillColor=#4b84b9;fontColor=#ffffff;fontFamily=Courier New;fontSize=13;fontStyle=0" vertex="1" parent="1">
          <mxGeometry x="104" y="810" width="227" height="50" as="geometry" />
        </mxCell>
        <mxCell id="VXcvFGD30qsPXuZ6tYkM-12" value="Using ETL" style="rounded=1;whiteSpace=wrap;html=1;fillColor=#4b84b9;fontColor=#ffffff;fontFamily=Courier New;fontSize=13;fontStyle=0" vertex="1" parent="1">
          <mxGeometry x="104" y="870" width="227" height="50" as="geometry" />
        </mxCell>
        <mxCell id="VXcvFGD30qsPXuZ6tYkM-13" value="Data Late vs Data Warehouse" style="rounded=1;whiteSpace=wrap;html=1;fillColor=#4b84b9;fontColor=#ffffff;fontFamily=Courier New;fontSize=13;fontStyle=0" vertex="1" parent="1">
          <mxGeometry x="104" y="930" width="227" height="50" as="geometry" />
        </mxCell>
        <mxCell id="VXcvFGD30qsPXuZ6tYkM-17" style="edgeStyle=orthogonalEdgeStyle;orthogonalLoop=1;jettySize=auto;html=1;exitX=0.5;exitY=1;exitDx=0;exitDy=0;curved=1;endArrow=none;endFill=0;dashed=1;" edge="1" parent="1" source="VXcvFGD30qsPXuZ6tYkM-14" target="VXcvFGD30qsPXuZ6tYkM-16">
          <mxGeometry relative="1" as="geometry" />
        </mxCell>
        <mxCell id="VXcvFGD30qsPXuZ6tYkM-14" value="Dockerize your python application" style="rounded=1;whiteSpace=wrap;html=1;fillColor=#4b84b9;fontColor=#ffffff;fontFamily=Courier New;fontSize=13;fontStyle=0" vertex="1" parent="1">
          <mxGeometry x="104" y="990" width="227" height="50" as="geometry" />
        </mxCell>
        <mxCell id="VXcvFGD30qsPXuZ6tYkM-16" value="keep exploring and stay up-to-date" style="text;html=1;strokeColor=none;fillColor=none;align=center;verticalAlign=middle;whiteSpace=wrap;rounded=0;fontStyle=1;fontFamily=Courier New;fontSize=20;" vertex="1" parent="1">
          <mxGeometry x="331" y="1150" width="229" height="61" as="geometry" />
        </mxCell>
      </root>
    </mxGraphModel>
  </diagram>
</mxfile>
